Coordinates
version=1
nRows=14
nColumns=24
inDegrees=yes

Units are S.I. units (second, meters, Newtons, ...)
Angles are in degrees.

endheader
time	pelvis_tilt	pelvis_list	pelvis_rotation	pelvis_tx	pelvis_ty	pelvis_tz	hip_flexion_r	hip_adduction_r	hip_rotation_r	knee_angle_r	ankle_angle_r	subtalar_angle_r	mtp_angle_r	hip_flexion_l	hip_adduction_l	hip_rotation_l	knee_angle_l	ankle_angle_l	subtalar_angle_l	mtp_angle_l	lumbar_extension	lumbar_bending	lumbar_rotation
      0.00000000	      0.49623143	     -0.51378492	      6.28945435	      0.09647023	      0.89025892	      0.03366929	     13.05042989	     -0.51625114	     -9.17225303	    -91.30155326	      7.11111157	    -10.21454948	      0.00000000	      5.42529721	      1.19711849	     -2.36299733	    -37.60035009	     28.81270603	      6.60241417	      0.00000000	    -15.82653147	      1.47376144	     -7.37796213
      0.01000000	     -0.17316622	     -1.03168515	      5.64902224	      0.09647700	      0.89741723	      0.03497767	     14.99754827	      0.16721777	     -8.80499279	    -87.75814760	      8.56236042	     -9.88160553	      0.00000000	      3.39975105	      0.46919018	     -2.78361996	    -34.84596180	     25.45277548	      6.36823641	      0.00000000	    -14.99379846	      2.16857425	     -8.03683087
      0.02000000	     -0.64973218	     -1.55091070	      5.08831513	      0.09696736	      0.90551068	      0.03613910	     16.41685922	      0.86849869	     -8.57861472	    -83.55686052	      9.78590814	     -9.58636191	      0.00000000	      1.19146950	     -0.25880906	     -3.27977515	    -32.00205606	     21.54200936	      6.19567473	      0.00000000	    -14.33301281	      2.93101840	     -8.70840249
      0.03000000	     -1.01757499	     -1.95828043	      4.62085914	      0.09757678	      0.91386256	      0.03721210	     17.47070514	      1.44015074	     -8.59566752	    -78.96645584	     10.80141314	     -9.62076259	      0.00000000	     -0.99969111	     -0.85136999	     -3.79937542	    -29.29022817	     17.22189748	      6.11687878	      0.00000000	    -13.82298645	      3.62830734	     -9.43730378
      0.04000000	     -1.29187078	     -2.26982308	      4.24100319	      0.09829632	      0.92209509	      0.03842245	     18.19047293	      1.95574022	     -8.66102868	    -73.95723221	     11.39318452	     -9.67040833	      0.00000000	     -3.05856686	     -1.37741302	     -4.37268915	    -26.88845597	     12.57482704	      6.25630051	      0.00000000	    -13.42328105	      4.19127671	    -10.16883001
      0.05000000	     -1.55786616	     -2.49282084	      3.90599231	      0.09895192	      0.93021685	      0.03942353	     18.68959249	      2.36814194	     -8.69596648	    -68.58890859	     11.92179737	     -9.23828834	      0.00000000	     -4.88498201	     -1.77936918	     -4.93789769	    -24.78841157	      7.47319153	      6.32014429	      0.00000000	    -13.06738426	      4.66661954	    -10.75062333
      0.06000000	     -1.84704842	     -2.61957746	      3.55855815	      0.10026962	      0.93777376	      0.04072926	     18.97095254	      2.73902076	     -8.61673871	    -62.87647546	     12.35839945	     -8.62809154	      0.00000000	     -6.56191640	     -2.10306931	     -5.56201911	    -22.87383018	      2.28840112	      6.24676416	      0.00000000	    -12.59670536	      4.95942228	    -11.27775085
      0.07000000	     -2.32960143	     -2.52589047	      3.13796435	      0.10129737	      0.94436658	      0.04196515	     19.38029664	      2.86786717	     -8.46720282	    -57.05579677	     12.64581440	     -8.02838325	      0.00000000	     -7.75767671	     -2.11921947	     -5.99025602	    -21.43819518	     -2.61641060	      6.06496801	      0.00000000	    -11.95861656	      4.98129210	    -11.65737639
      0.08000000	     -3.03855758	     -2.24364084	      2.79947079	      0.10182816	      0.94987370	      0.04292317	     19.96900039	      2.75147939	     -8.36495744	    -51.25353756	     12.87644208	     -7.17611247	      0.00000000	     -8.34405832	     -1.88388094	     -5.94622984	    -20.61931090	     -6.91054227	      5.39306482	      0.00000000	    -11.11883933	      4.79111928	    -12.05363677
      0.09000000	     -3.87017841	     -1.74125642	      2.37185011	      0.10249975	      0.95441932	      0.04406527	     20.61549972	      2.43887018	     -8.03841054	    -45.52454394	     12.98886436	     -6.11424492	      0.00000000	     -8.59691297	     -1.38723161	     -5.87040258	    -20.30894459	    -10.28160010	      4.87567540	      0.00000000	    -10.09301270	      4.29731114	    -12.28557760
      0.10000000	     -4.77457112	     -1.03604124	      1.92416730	      0.10285973	      0.95767089	      0.04521500	     21.33728644	      1.93248558	     -7.63555031	    -39.94000725	     13.07690205	     -4.84170420	      0.00000000	     -8.45647189	     -0.64439604	     -5.71687927	    -20.69985114	    -13.17450864	      3.90189113	      0.00000000	     -8.99586374	      3.55643000	    -12.42908174
      0.11000000	     -5.65728402	     -0.22438262	      1.46289067	      0.10297965	      0.95970114	      0.04639098	     22.02675857	      1.35086453	     -7.10936062	    -34.60649889	     13.22249802	     -3.33611409	      0.00000000	     -8.01041177	      0.22151259	     -5.65654550	    -21.76891167	    -16.11466988	      2.35709314	      0.00000000	     -7.92293342	      2.68680902	    -12.45389902
      0.12000000	     -6.50034305	      0.56683362	      1.09432807	      0.10296464	      0.96080197	      0.04763294	     22.58812692	      0.77767299	     -6.51380778	    -29.36602001	     13.44872944	     -1.47990694	      0.00000000	     -7.27513844	      1.01672291	     -5.67170076	    -23.61527006	    -18.88871062	      1.13054124	      0.00000000	     -6.88207608	      1.81640342	    -12.43458799
      0.13000000	     -7.04153320	      1.26916232	      0.60005108	      0.10317203	      0.96105428	      0.04888359	     22.77264588	      0.33699900	     -5.73329796	    -24.35622495	     13.85189459	      0.25094562	      0.00000000	     -6.71196476	      1.72363897	     -5.78746262	    -25.97007404	    -21.49039256	      0.11615832	      0.00000000	     -6.15496305	      1.07409782	    -12.19760116
